<?xml version="1.0" standalone="no"?>
<!DOCTYPE svg PUBLIC "-//W3C//DTD SVG 20010904//EN"
 "http://www.w3.org/TR/2001/REC-SVG-20010904/DTD/svg10.dtd">
<svg version="1.0" xmlns="http://www.w3.org/2000/svg"
 width="384.000000pt" height="384.000000pt" viewBox="0 0 384.000000 384.000000"
 preserveAspectRatio="xMidYMid meet">
<metadata>
Created by potrace 1.11, written by Peter Selinger 2001-2013
</metadata>
<g transform="translate(0.000000,384.000000) scale(0.100000,-0.100000)"
fill="#000000" stroke="none">
<path d="M709 3836 c-2 -2 -20 -6 -39 -9 -83 -13 -111 -23 -225 -78 -229 -112
-387 -328 -435 -594 -13 -71 -12 -2416 1 -2483 49 -260 227 -490 463 -597 73
-33 82 -36 171 -55 74 -17 165 -18 1295 -16 668 2 1227 5 1242 8 272 57 512
262 605 516 53 143 52 125 50 1422 -2 663 -6 1219 -10 1235 -48 195 -135 341
-274 460 -112 96 -253 161 -398 184 -56 9 -2437 16 -2446 7z"/>
</g>
</svg>
